<svg width="12" height="20" viewBox="0 0 12 20" fill="none" xmlns="http://www.w3.org/2000/svg">
<path d="M4.54545 0.75H2.64773C2.14442 0.75 1.66172 0.949939 1.30583 1.30583C0.949939 1.66172 0.75 2.14442 0.75 2.64773V16.5644C0.75 17.0677 0.949939 17.5504 1.30583 17.9063C1.66172 18.2622 2.14442 18.4621 2.64773 18.4621H8.97348C9.47679 18.4621 9.95949 18.2622 10.3154 17.9063C10.6713 17.5504 10.8712 17.0677 10.8712 16.5644V2.64773C10.8712 2.14442 10.6713 1.66172 10.3154 1.30583C9.95949 0.949939 9.47679 0.75 8.97348 0.75H7.07576M4.54545 0.75V2.01515H7.07576V0.75M4.54545 0.75H7.07576M4.54545 16.5644H7.07576" stroke="black" stroke-width="1.5" stroke-linecap="round" stroke-linejoin="round"/>
</svg>
