<svg width="17" height="17" viewBox="0 0 17 17" fill="none" xmlns="http://www.w3.org/2000/svg">
<path d="M8.34091 15.9318C10.0236 15.9317 11.6585 15.3728 12.9891 14.3428C14.3197 13.3128 15.2705 11.8701 15.6923 10.2412M8.34091 15.9318C6.65826 15.9317 5.0233 15.3728 3.69272 14.3428C2.36215 13.3128 1.41132 11.8701 0.989538 10.2412M8.34091 15.9318C10.4368 15.9318 12.1364 12.5328 12.1364 8.34091C12.1364 4.14904 10.4368 0.750001 8.34091 0.750001M8.34091 15.9318C6.24498 15.9318 4.54546 12.5328 4.54546 8.34091C4.54546 4.14904 6.24498 0.750001 8.34091 0.750001M15.6923 10.2412C15.8483 9.6339 15.9318 8.9971 15.9318 8.34091C15.9339 7.03537 15.5977 5.75156 14.956 4.61462M15.6923 10.2412C13.443 11.4881 10.9127 12.1404 8.34091 12.1364C5.67397 12.1364 3.16813 11.449 0.989538 10.2412M0.989538 10.2412C0.829916 9.62038 0.749433 8.98189 0.750003 8.34091C0.750003 6.9872 1.10425 5.7153 1.72586 4.61462M8.34091 0.750001C9.68724 0.749439 11.0095 1.10707 12.172 1.78621C13.3344 2.46535 14.2953 3.44154 14.956 4.61462M8.34091 0.750001C6.99459 0.749439 5.67235 1.10707 4.50987 1.78621C3.34739 2.46535 2.38652 3.44154 1.72586 4.61462M14.956 4.61462C13.1195 6.20527 10.7705 7.07925 8.34091 7.07576C5.8123 7.07576 3.4996 6.14798 1.72586 4.61462" stroke="black" stroke-width="1.5" stroke-linecap="round" stroke-linejoin="round"/>
</svg>
