<svg width="17" height="17" viewBox="0 0 17 17" fill="none" xmlns="http://www.w3.org/2000/svg">
<path d="M5.49432 7.70833C5.49432 7.79222 5.461 7.87267 5.40168 7.93198C5.34236 7.9913 5.26192 8.02462 5.17803 8.02462C5.09415 8.02462 5.0137 7.9913 4.95438 7.93198C4.89507 7.87267 4.86174 7.79222 4.86174 7.70833C4.86174 7.62445 4.89507 7.544 4.95438 7.48468C5.0137 7.42537 5.09415 7.39205 5.17803 7.39205C5.26192 7.39205 5.34236 7.42537 5.40168 7.48468C5.461 7.544 5.49432 7.62445 5.49432 7.70833ZM5.49432 7.70833H5.17803M8.6572 7.70833C8.6572 7.79222 8.62387 7.87267 8.56456 7.93198C8.50524 7.9913 8.42479 8.02462 8.34091 8.02462C8.25702 8.02462 8.17657 7.9913 8.11726 7.93198C8.05794 7.87267 8.02462 7.79222 8.02462 7.70833C8.02462 7.62445 8.05794 7.544 8.11726 7.48468C8.17657 7.42537 8.25702 7.39205 8.34091 7.39205C8.42479 7.39205 8.50524 7.42537 8.56456 7.48468C8.62387 7.544 8.6572 7.62445 8.6572 7.70833ZM8.6572 7.70833H8.34091M11.8201 7.70833C11.8201 7.79222 11.7868 7.87267 11.7274 7.93198C11.6681 7.9913 11.5877 8.02462 11.5038 8.02462C11.4199 8.02462 11.3395 7.9913 11.2801 7.93198C11.2208 7.87267 11.1875 7.79222 11.1875 7.70833C11.1875 7.62445 11.2208 7.544 11.2801 7.48468C11.3395 7.42537 11.4199 7.39205 11.5038 7.39205C11.5877 7.39205 11.6681 7.42537 11.7274 7.48468C11.7868 7.544 11.8201 7.62445 11.8201 7.70833ZM11.8201 7.70833H11.5038M15.9318 7.70833C15.9318 11.551 12.5328 14.6667 8.34091 14.6667C7.61318 14.6676 6.88855 14.572 6.18593 14.3824C5.19554 15.079 3.98738 15.3955 2.78268 15.2739C2.64873 15.261 2.51537 15.2427 2.38289 15.2191C2.79859 14.7292 3.08249 14.1414 3.20777 13.5112C3.28368 13.1257 3.09559 12.7512 2.81388 12.4771C1.53439 11.2322 0.75 9.55461 0.75 7.70833C0.75 3.86565 4.14904 0.75 8.34091 0.75C12.5328 0.75 15.9318 3.86565 15.9318 7.70833Z" stroke="black" stroke-width="1.5" stroke-linecap="round" stroke-linejoin="round"/>
</svg>
